<svg class="NavMain_logo__sK0bH" xmlns="http://www.w3.org/2000/svg" viewBox="0 0 662 430"><path d="M 356.00,262.00 C 356.00,262.00 157.00,262.00 157.00,262.00 153.29,261.99 143.88,262.24 143.59,256.89 143.40,253.34 151.98,242.20 154.37,239.00 165.86,223.62 178.51,208.66 192.09,195.09 192.09,195.09 200.00,187.96 200.00,187.96 200.00,187.96 254.00,140.13 254.00,140.13 266.59,129.29 281.56,116.72 289.69,102.00 294.85,92.65 298.38,80.77 297.96,70.00 296.12,22.61 250.91,3.90 210.00,0.91 210.00,0.91 200.00,0.00 200.00,0.00 163.04,-0.43 129.49,8.82 98.00,28.42 93.52,31.21 82.35,36.77 83.70,43.00 84.31,45.78 87.69,50.49 89.31,53.00 89.31,53.00 99.34,69.00 99.34,69.00 100.95,71.44 103.22,75.39 106.09,76.36 110.41,77.82 122.48,70.40 127.00,68.42 143.42,61.26 160.67,53.22 179.00,53.00 188.51,52.89 197.51,53.44 206.00,58.36 217.04,64.77 222.64,75.46 215.53,87.00 210.92,94.49 199.99,103.81 193.00,109.40 193.00,109.40 156.00,138.43 156.00,138.43 122.16,166.59 83.80,203.36 59.33,240.00 46.14,259.75 36.53,276.54 28.43,299.00 26.88,303.30 22.01,316.74 25.60,320.26 27.70,322.32 32.23,322.00 35.00,322.00 35.00,322.00 322.00,322.00 322.00,322.00 327.71,321.99 333.42,321.98 337.87,317.78 342.37,313.52 343.79,304.86 345.42,299.00 345.42,299.00 356.00,262.00 356.00,262.00 Z M 483.00,207.00 C 483.00,207.00 473.88,239.00 473.88,239.00 472.40,244.62 470.94,252.63 466.79,256.79 462.54,261.04 456.73,261.93 451.00,262.00 451.00,262.00 438.00,262.00 438.00,262.00 436.33,262.03 434.10,261.94 432.70,262.99 430.48,264.66 428.40,274.02 427.63,277.00 427.63,277.00 419.14,307.00 419.14,307.00 418.21,310.29 415.92,316.49 418.02,319.57 419.98,322.44 424.93,322.00 428.00,322.00 428.00,322.00 471.00,322.00 471.00,322.00 475.66,321.99 480.94,322.01 484.96,319.28 489.68,316.06 491.41,310.24 492.85,305.00 492.85,305.00 499.58,281.00 499.58,281.00 499.58,281.00 512.58,235.00 512.58,235.00 515.19,225.83 517.47,215.05 522.47,207.00 531.05,193.17 546.93,185.19 563.00,185.00 576.60,184.85 593.12,187.64 595.50,204.00 596.39,210.18 591.56,224.48 589.71,231.00 589.71,231.00 574.71,284.00 574.71,284.00 574.71,284.00 567.71,309.00 567.71,309.00 566.91,311.83 565.25,316.92 567.03,319.57 568.70,322.07 572.34,321.96 575.00,322.00 575.00,322.00 620.00,322.00 620.00,322.00 622.78,322.00 626.42,322.21 628.89,320.83 633.67,318.16 635.68,307.17 637.14,302.00 637.14,302.00 650.71,254.00 650.71,254.00 654.49,240.86 661.94,218.82 662.00,206.00 662.00,206.00 662.00,197.00 662.00,197.00 661.97,191.44 661.14,185.34 659.56,180.00 650.75,150.10 626.00,141.84 598.00,139.91 598.00,139.91 589.00,139.02 589.00,139.02 581.01,138.86 563.79,141.23 556.00,143.43 548.06,145.67 543.14,147.94 536.00,152.00 536.00,152.00 554.71,86.00 554.71,86.00 554.71,86.00 566.00,46.00 566.00,46.00 566.00,46.00 574.42,16.00 574.42,16.00 575.18,13.35 577.90,5.45 577.22,3.39 575.53,-2.61 561.07,2.58 557.00,3.39 543.94,6.99 529.05,12.73 517.00,18.75 512.58,20.97 503.52,25.26 500.13,28.38 496.39,31.82 495.44,37.25 494.15,42.00 494.15,42.00 486.86,68.00 486.86,68.00 486.86,68.00 458.86,167.00 458.86,167.00 458.86,167.00 450.86,195.00 450.86,195.00 450.07,197.80 448.19,202.84 450.18,205.43 451.70,207.41 455.73,207.00 458.00,207.00 458.00,207.00 483.00,207.00 483.00,207.00 Z M 393.98,106.96 C 386.99,109.75 369.20,122.20 362.00,127.00 339.18,142.21 317.03,158.14 296.00,175.75 288.37,182.15 280.90,188.78 274.04,196.00 267.11,203.30 265.67,206.98 277.00,207.00 277.00,207.00 357.00,207.00 357.00,207.00 363.41,206.99 368.21,206.77 372.30,200.96 374.69,197.56 378.05,183.80 379.42,179.00 379.42,179.00 392.42,133.00 392.42,133.00 392.42,133.00 397.84,114.00 397.84,114.00 398.86,109.77 399.13,106.92 393.98,106.96 Z M 527.00,424.00 C 533.29,425.82 537.51,426.77 544.00,427.73 544.00,427.73 557.00,429.17 557.00,429.17 570.66,430.53 596.12,431.81 607.96,424.39 615.53,419.65 618.90,410.59 619.00,402.00 619.04,398.03 619.33,393.62 616.99,390.18 611.49,382.09 588.48,380.67 579.00,380.02 575.32,379.78 564.99,379.01 562.33,376.91 558.73,374.08 561.82,370.12 565.04,368.72 570.05,366.56 582.23,366.99 588.00,367.00 588.00,367.00 618.00,370.00 618.00,370.00 618.00,370.00 622.00,353.00 622.00,353.00 622.00,353.00 598.00,350.00 598.00,350.00 598.00,350.00 585.00,349.34 585.00,349.34 585.00,349.34 576.00,350.00 576.00,350.00 560.36,350.18 546.54,350.90 540.24,368.00 539.15,370.96 538.27,374.85 538.09,378.00 537.10,395.17 553.20,395.80 566.00,397.16 566.00,397.16 581.00,398.92 581.00,398.92 584.80,399.22 595.01,399.50 596.82,403.27 597.47,404.49 597.33,405.70 596.82,406.90 594.33,412.04 585.81,411.99 581.00,412.00 567.60,412.02 559.39,411.92 546.00,409.39 543.00,408.82 535.09,406.30 532.70,408.01 530.45,409.62 527.92,420.84 527.00,424.00 Z M 79.00,411.00 C 79.00,411.00 24.00,411.00 24.00,411.00 24.00,411.00 33.71,377.00 33.71,377.00 33.71,377.00 41.00,350.00 41.00,350.00 41.00,350.00 27.00,350.00 27.00,350.00 25.00,350.00 21.34,349.74 19.72,350.99 17.69,352.57 15.26,363.05 14.42,366.00 14.42,366.00 3.71,404.00 3.71,404.00 2.29,408.93 -0.90,418.11 0.31,423.00 1.84,429.11 6.89,428.99 12.00,429.00 12.00,429.00 67.00,429.00 67.00,429.00 68.86,428.99 71.76,429.17 73.30,428.01 75.69,426.21 78.33,414.31 79.00,411.00 Z M 162.00,429.00 C 162.00,429.00 166.00,411.00 166.00,411.00 166.00,411.00 108.00,411.00 108.00,411.00 108.00,411.00 113.30,399.02 113.30,399.02 113.30,399.02 126.00,398.00 126.00,398.00 126.00,398.00 157.00,398.00 157.00,398.00 157.00,398.00 161.00,380.00 161.00,380.00 161.00,380.00 117.00,380.00 117.00,380.00 117.00,380.00 120.00,368.00 120.00,368.00 120.00,368.00 175.00,368.00 175.00,368.00 175.00,368.00 179.00,350.00 179.00,350.00 179.00,350.00 111.00,350.00 111.00,350.00 109.00,350.00 105.33,349.74 103.72,350.99 101.77,352.51 99.15,364.00 98.29,367.00 98.29,367.00 87.58,405.00 87.58,405.00 86.22,409.77 83.13,418.26 84.31,423.00 85.84,429.11 90.89,428.99 96.00,429.00 96.00,429.00 162.00,429.00 162.00,429.00 Z M 224.00,350.00 C 224.00,350.00 208.58,406.00 208.58,406.00 208.58,406.00 203.00,429.00 203.00,429.00 203.00,429.00 225.00,429.00 225.00,429.00 225.00,429.00 237.00,382.00 237.00,382.00 241.42,386.43 246.23,397.97 249.25,404.00 250.67,406.83 252.70,411.53 255.21,413.40 260.57,417.40 265.94,413.03 270.00,409.57 270.00,409.57 299.00,383.00 299.00,383.00 299.00,383.00 287.00,429.00 287.00,429.00 287.00,429.00 309.00,429.00 309.00,429.00 309.00,429.00 331.00,350.00 331.00,350.00 324.95,350.00 312.14,349.31 307.00,351.34 301.78,353.40 297.25,358.97 293.00,362.72 293.00,362.72 265.00,389.00 265.00,389.00 263.20,382.69 255.56,368.63 252.25,362.00 250.47,358.44 248.50,353.26 244.90,351.31 241.20,349.32 228.74,350.00 224.00,350.00 Z M 315.00,429.00 C 315.00,429.00 337.71,427.98 337.71,427.98 337.71,427.98 351.04,414.02 351.04,414.02 351.04,414.02 359.00,413.00 359.00,413.00 359.00,413.00 383.00,413.00 383.00,413.00 383.00,413.00 390.70,414.02 390.70,414.02 390.70,414.02 396.72,428.01 396.72,428.01 396.72,428.01 417.00,429.00 417.00,429.00 417.00,429.00 403.65,369.00 403.65,369.00 402.85,365.49 400.89,352.83 398.44,351.02 396.74,349.77 393.08,350.00 391.00,350.00 391.00,350.00 387.00,350.00 387.00,350.00 373.99,350.16 370.69,357.64 363.20,367.00 363.20,367.00 331.20,407.00 331.20,407.00 326.55,412.81 317.72,422.63 315.00,429.00 Z M 424.00,429.00 C 424.00,429.00 446.00,429.00 446.00,429.00 446.00,429.00 460.00,379.00 460.00,379.00 460.00,379.00 482.00,414.00 482.00,414.00 482.00,414.00 492.18,427.83 492.18,427.83 492.18,427.83 507.00,429.00 507.00,429.00 507.00,429.00 512.44,427.98 512.44,427.98 512.44,427.98 518.37,411.00 518.37,411.00 518.37,411.00 535.00,350.00 535.00,350.00 535.00,350.00 513.00,350.00 513.00,350.00 513.00,350.00 499.00,401.00 499.00,401.00 499.00,401.00 476.95,366.00 476.95,366.00 474.44,362.00 469.85,353.40 465.91,351.31 462.69,349.61 455.75,349.93 452.00,350.00 450.26,350.04 447.99,349.97 446.51,351.02 444.03,352.78 441.37,364.59 440.42,368.00 440.42,368.00 429.58,407.00 429.58,407.00 427.75,413.58 424.59,422.46 424.00,429.00 Z M 383.00,373.00 C 383.00,373.00 388.00,395.00 388.00,395.00 388.00,395.00 365.00,395.00 365.00,395.00 368.36,389.22 377.85,377.01 383.00,373.00 Z M 300.00,382.00 C 300.00,382.00 300.00,383.00 300.00,383.00 300.00,383.00 299.00,382.00 299.00,382.00 299.00,382.00 300.00,382.00 300.00,382.00 Z M 644.00,398.48 C 623.75,403.87 630.61,432.31 650.00,428.66 660.68,426.65 666.03,412.87 659.35,404.10 655.68,399.29 649.73,397.78 644.00,398.48 Z M 657.00,422.00 C 657.00,422.00 652.00,414.00 652.00,414.00 659.70,404.55 645.29,405.00 640.00,405.00 640.00,405.00 640.00,422.00 640.00,422.00 640.00,422.00 645.00,422.00 645.00,422.00 645.00,422.00 645.00,416.00 645.00,416.00 645.00,416.00 644.98,416.07 647.07,416.04 651.18,422.09 649.61,419.75 651.18,422.07 655.98,422.27 656.00,422.00 656.00,422.00 644.73,434.44 627.57,418.45 636.65,406.04 643.35,396.89 658.31,400.53 659.77,412.00 660.29,416.02 658.84,418.62 657.00,422.00 Z M 650.00,409.00 C 650.00,409.00 650.49,410.75 649.33,411.44 648.01,412.24 645.00,412.00 645.00,412.00 645.00,412.00 645.00,409.00 645.00,409.00 645.00,409.00 650.00,409.00 650.00,409.00 Z"></path></svg>