<?xml version="1.0" encoding="utf-8"?>
<!-- Generator: Adobe Illustrator 26.2.1, SVG Export Plug-In . SVG Version: 6.00 Build 0)  -->
<svg version="1.1" id="Layer_1" xmlns="http://www.w3.org/2000/svg" xmlns:xlink="http://www.w3.org/1999/xlink" x="0px" y="0px"
	 viewBox="0 0 248 90" style="enable-background:new 0 0 248 90;" xml:space="preserve">
<style type="text/css">
	.st0{fill:#FC0000;}
	.st1{fill:#1A1A1A;}
	.st2{fill:#FFED00;}
</style>
<g>
	<path class="st0" d="M101.4,58.7h-0.2H90.1l-2.8,13.9c9.2,0,18.4,0,27.6,0h0l0,0c1.1,0.1,1.6,0.9,1.3,2c-0.3,1.1-0.7,2.2-1.1,3.4
		c-0.3,1-1.4,1.9-2.4,1.9c-9.2,0-17.9,0-26.9,0l-1.8,8.9c13.3,0,26.7,0,40,0c3.4,0,6.9-2.8,7.9-6.1c1.3-4.4,2.6-8.7,3.8-13.1
		c0.9-3.2-0.8-5.9-4.1-5.9c-10,0-19.9,0-29.9,0h0l0,0c-1-0.1-1.6-1-1.3-2l0,0L101.4,58.7z"/>
	<path class="st0" d="M237.1,57.2l-53.3,1.5l-1.8,6c-0.3,1-1.3,1.9-2.4,1.9c-6.9,0-13.7,0-20.6,0h-0.4l0.1-0.4l2.3-7.5
		c0,0-18.2,0-18.5,0l-8.6,30.1c6.1,0,12,0,18,0c1.1-4.2,2.6-9,3.9-13.1l0.1-0.3h0.3c10.4,0,20.7,0,31.1,0l-12.3,13.4l20.1,0l4.2-4.6
		h26.3l2,4.6l20.6,0L237.1,57.2z M207.3,75.3l11.2-12.5l0.4-0.4l0.2,0.5l3.7,12.4H207.3z"/>
	<path class="st1" d="M50.7,88.7c0.7-3.2,1.4-6.5,2.1-9.7c-10.5,0-21,0-31.6,0l0.9-4.5c0.2-0.8,1.1-1.5,2-1.5c0.7,0,1.6,0,2.4,0
		c2.6,0,5.3,0,7.8,0c3.7,0,7.3,0,11.1,0c-0.1-0.1-0.2-0.2-0.2-0.3c-1.9-2.3-2.6-5.4-1.9-8.7l3.2-16.4H18.3c-0.7,3.2-1.3,6.4-2,9.6
		H41c1.3,0,2,1,1.7,2.3l-0.6,2.3c-0.1,0.8-0.9,1.5-1.7,1.5H18.7c-4.5,0-9,3.7-10,8.3L5.2,88.7H50.7z"/>
	<path class="st1" d="M60.3,47.6H47.2l-3.2,16.2c-0.6,3.2,0,6.2,1.8,8.4c1.7,2,3.3,3.1,7.3,3.2L72,75.6l-2.8,13.1h13.1l6.1-30.1
		H75.4l-1.5,8.1H59.2c-0.7,0-1.3-0.3-1.6-0.7c-0.4-0.5-0.5-1.1-0.4-1.7L60.3,47.6z"/>
	<g>
		<polygon class="st1" points="58,88.7 60,79 55.6,79 53.5,88.7 		"/>
		<polygon class="st2" points="62.2,88.7 64.2,79 60,79 58,88.7 		"/>
		<polygon class="st0" points="66.4,88.7 68.5,79 64.2,79 62.2,88.7 		"/>
	</g>
	<path class="st0" d="M77.2,47.6l-1.8,9.6L237,57.1c-0.6-1.9-1.2-3.9-1.8-5.8c-0.8-2.5-3.1-3.6-5.7-3.6L77.2,47.6z"/>
	<path class="st1" d="M36.7,20.9v-0.4l-3.5-3h-0.4c-1,1.1-2.4,1.9-4.1,1.9c-2.6,0-4.6-2-4.6-4.7s2-4.7,4.6-4.7
		c1.7,0,3.1,0.8,4.1,1.9h0.4l3.5-3V8.4c-1.8-2.2-4.7-3.7-7.9-3.7c-6,0-10.5,4.2-10.5,9.9c0,0.2,0.1,0.4,0.1,0.6
		c2.4,1.7,4.6,3,6.5,4.2c2.7,1.7,4.8,3.3,6.6,4.7C33.7,23.6,35.5,22.4,36.7,20.9 M20.5,20.8c1.4,1.7,3.4,3,5.7,3.5
		c-1.6-0.9-3.1-1.8-4.5-2.7C21.3,21.3,20.9,21,20.5,20.8"/>
	<path class="st1" d="M56.9,23.3L56,19.5l-0.3-0.2c-0.2,0.1-0.3,0.2-0.8,0.2c-0.7,0-1.1-0.7-1.4-1.3c-0.6-0.9-1-1.4-1.4-1.6
		c2.1-0.9,3.5-2.7,3.5-5.2C55.6,7.5,52.9,5,48,5h-8.6v19.2h5.7v-6.7h0.5c1.3,0,2.9,2.8,3.7,4c1.6,2.5,2.8,3.1,5,3.1
		c1,0,1.9-0.4,2.4-0.9L56.9,23.3L56.9,23.3z M49.8,11.8c0,1.3-0.9,1.9-2,1.9h-2.7V9.7h2.7C48.8,9.7,49.8,10.5,49.8,11.8"/>
	<path class="st1" d="M79,14.6c0-5.7-4.5-9.9-10.5-9.9c-6,0-10.5,4.2-10.5,9.9c0,5.7,4.5,9.9,10.5,9.9C74.5,24.6,79,20.3,79,14.6
		 M73.2,14.6c0,2.7-2.1,4.7-4.7,4.7c-2.6,0-4.7-1.9-4.7-4.7c0-2.7,2.1-4.7,4.7-4.7C71.1,9.9,73.2,11.9,73.2,14.6"/>
	<polygon class="st1" points="107.8,5 102.3,5 98.9,15.6 95.3,5 91.8,5 88.3,15.6 84.9,5 79.4,5 79.1,5.5 86.1,24.2 89.6,24.2 
		93.6,13.8 97.5,24.2 101,24.2 108,5.5 107.8,5 	"/>
	<path class="st1" d="M129,14.6c0-5.7-3.8-9.6-10-9.6h-8.8v19.2h8.8C125.2,24.2,129,20.4,129,14.6 M123.2,14.6
		c0,3.1-1.8,4.9-4.3,4.9H116V9.7h2.8C121.3,9.7,123.2,11.5,123.2,14.6"/>
	<polygon class="st1" points="159.4,9.7 165.2,9.7 165.2,5 147.9,5 147.9,9.7 153.7,9.7 153.7,24.2 159.4,24.2 159.4,9.7 	"/>
	<path class="st1" d="M183.5,11.4c0-3.9-2.7-6.4-7.6-6.4h-8.6v19.2h5.7v-6.7h1.4l3.6,6.7h5.7l0.3-0.4l-3.8-7.1
		C182.1,15.7,183.5,13.9,183.5,11.4 M177.6,11.8c0,1.3-0.9,1.9-2,1.9H173V9.7h2.7C176.7,9.7,177.6,10.5,177.6,11.8"/>
	<polygon class="st1" points="187,24.2 192.7,24.2 192.7,5 187,5 187,24.2 	"/>
	<polygon class="st1" points="207.3,13.6 213.7,5.5 213.5,5 207.4,5 202.1,11.8 202.1,5 196.3,5 196.3,24.2 202.1,24.2 202.1,18.3 
		203.1,17.1 208,24.2 214,24.2 214.2,23.8 207.3,13.6 	"/>
	<polygon class="st1" points="230.1,9.7 230.1,5 215.8,5 215.8,24.2 230.2,24.2 230.2,19.5 221.5,19.5 221.5,16.8 228.1,16.8 
		228.1,12.4 221.5,12.4 221.5,9.7 230.1,9.7 	"/>
	<path class="st1" d="M138.7,24.4c4.2,0,7.9-2.1,7.9-6c0-4.3-3.7-5.5-6.9-6.4c-1.3-0.4-2.6-0.8-2.6-1.8c0-0.7,0.7-1.1,1.8-1.1
		c1.9,0,3.5,1.2,4.3,1.9h0.4l2.7-3.2V7.4c-1.4-1.6-4.3-2.9-7.5-2.9c-4.5,0-7.6,2.4-7.6,5.9c0,3.8,3.4,5.4,6.3,6.3
		c1.9,0.5,3.2,0.6,3.2,1.7c0,0.7-0.9,1.2-2.3,1.2c-1.8,0-3.9-1.2-5-2.2h-0.4l-2.7,3.4v0.4C132.1,23.1,135.2,24.4,138.7,24.4"/>
	<path class="st0" d="M39.8,42c-1.4-3.2-4.2-7.3-15.1-13.2c-5-2.8-13.7-7.2-21.4-15.4c0.7,3,4.3,9.5,19.8,17.7
		C27.4,33.5,34.6,35.7,39.8,42"/>
	<path class="st0" d="M39.1,36.6c-1.3-3.8-3.7-8.6-15-15.8C18.6,17.2,10.6,12.6-0.1,1c0.8,3.1,4.1,11.3,21,21.8
		C26.5,26.6,33.7,28.9,39.1,36.6"/>
</g>
</svg>
